# xmcd
#
# Track frame offsets:
#	182
#	14132
#	29152
#	44370
#	60250
#	76100
#	79437
#	96062
#	115310
#	133175
#	144710
#	158200
#	163327
#
# Disc length: 2430 seconds
#
# Revision: 0
# Processed by: cddbd v1.4PL0 Copyright (c) Steve Scherf et al.
# Submitted via: dBpowerAMP V4.0
#
DISCID=b6097c0d
DTITLE=Abuelo Jones - En directo
DYEAR=1992
DGENRE=Country
TTITLE0=Cindy
TTITLE1=Quiereme aunque no bebas
TTITLE2=Metropolitano
TTITLE3=Corazon de madera
TTITLE4=La rosa de San Antonio
TTITLE5=Ragtime
TTITLE6=6.27
TTITLE7=Esta tierra es tu tierra
TTITLE8=Nicolas
TTITLE9=Tren de carga
TTITLE10=Luna azul en Kentucky
TTITLE11=Ragtime 2
TTITLE12=A orillas del Ohio
EXTD=
EXTT0=
EXTT1=
EXTT2=
EXTT3=
EXTT4=
EXTT5=
EXTT6=
EXTT7=
EXTT8=
EXTT9=
EXTT10=
EXTT11=
EXTT12=
PLAYORDER=
